# xmcd
#
# Track frame offsets: 
#        150
#        13417
#        28085
#        41187
#        56217
#        70267
#        83647
#        97929
#        111687
#        124595
#        138395
#        153987
#        167575
#        181262
#        194850
#        208425
#        222917
#        235312
#        251592
#        266942
#        281357
#        296250
#        310680
#        324137
#        338117
#
# Disc length: 4692 seconds
#
# Revision: 1
# Processed by: cddbd v1.5.2PL0 Copyright (c) Steve Scherf et al.
# Submitted via: ExactAudioCopy v0.99pb5
#
DISCID=81125219
DTITLE=Luis Russell - The Luis Russell Story 1929-1934 [CD2]
DYEAR=2005
DGENRE=Jazz
TTITLE0=Muggin' Lightly
TTITLE1=Panama
TTITLE2=High Tension
TTITLE3=I Got Rhythm
TTITLE4=Saratoga Drag
TTITLE5=Ease On Down
TTITLE6=Honey, That Reminds Me
TTITLE7=You Rascal You
TTITLE8=Goin' To Town
TTITLE9=Say The Word
TTITLE10=Freakish Blues
TTITLE11=At The Darktown Strutters' Ball
TTITLE12=My Blue Heaven
TTITLE13=Ghost Of The Freaks
TTITLE14=Hokus Pokus
TTITLE15=Primitive
TTITLE16=Ol' Man River
TTITLE17=West End Blues
TTITLE18=I've Got That Thing
TTITLE19=Freakish Light Blues
TTITLE20=Call Of The Freaks
TTITLE21=The Trumpet's Prayer
TTITLE22=The Way He Loves Is Just Too Bad
TTITLE23=Louisiana Swing
TTITLE24=On Revival Day
EXTD=YEAR: 2000
EXTT0=
EXTT1=
EXTT2=
EXTT3=
EXTT4=
EXTT5=
EXTT6=
EXTT7=
EXTT8=
EXTT9=
EXTT10=
EXTT11=
EXTT12=
EXTT13=
EXTT14=
EXTT15=
EXTT16=
EXTT17=
EXTT18=
EXTT19=
EXTT20=
EXTT21=
EXTT22=
EXTT23=
EXTT24=
PLAYORDER=
